<svg width="64" height="64" viewBox="0 0 64 64" fill="none" xmlns="http://www.w3.org/2000/svg">
<rect width="64" height="64" rx="32" fill="#27303B"/>
<path d="M32.168 49.336C29.704 49.336 27.496 48.936 25.544 48.136C23.592 47.336 22.024 46.152 20.84 44.584C19.688 43.016 19.08 41.128 19.016 38.92H27.752C27.88 40.168 28.312 41.128 29.048 41.8C29.784 42.44 30.744 42.76 31.928 42.76C33.144 42.76 34.104 42.488 34.808 41.944C35.512 41.368 35.864 40.584 35.864 39.592C35.864 38.76 35.576 38.072 35 37.528C34.456 36.984 33.768 36.536 32.936 36.184C32.136 35.832 30.984 35.432 29.48 34.984C27.304 34.312 25.528 33.64 24.152 32.968C22.776 32.296 21.592 31.304 20.6 29.992C19.608 28.68 19.112 26.968 19.112 24.856C19.112 21.72 20.248 19.272 22.52 17.512C24.792 15.72 27.752 14.824 31.4 14.824C35.112 14.824 38.104 15.72 40.376 17.512C42.648 19.272 43.864 21.736 44.024 24.904H35.144C35.08 23.816 34.68 22.968 33.944 22.36C33.208 21.72 32.264 21.4 31.112 21.4C30.12 21.4 29.32 21.672 28.712 22.216C28.104 22.728 27.8 23.48 27.8 24.472C27.8 25.56 28.312 26.408 29.336 27.016C30.36 27.624 31.96 28.28 34.136 28.984C36.312 29.72 38.072 30.424 39.416 31.096C40.792 31.768 41.976 32.744 42.968 34.024C43.96 35.304 44.456 36.952 44.456 38.968C44.456 40.888 43.96 42.632 42.968 44.2C42.008 45.768 40.6 47.016 38.744 47.944C36.888 48.872 34.696 49.336 32.168 49.336Z" fill="url(#paint0_linear_617_5)"/>
<defs>
<linearGradient id="paint0_linear_617_5" x1="17" y1="8" x2="47" y2="56" gradientUnits="userSpaceOnUse">
<stop stop-color="#96E6B3"/>
<stop offset="1" stop-color="#98A2E7"/>
</linearGradient>
</defs>
</svg>
